<?xml version="1.0" encoding="utf-8"?>
<!-- Generator: Adobe Illustrator 25.4.1, SVG Export Plug-In . SVG Version: 6.00 Build 0)  -->
<svg version="1.1" id="body_1" xmlns="http://www.w3.org/2000/svg" xmlns:xlink="http://www.w3.org/1999/xlink" x="0px" y="0px"
	 viewBox="0 0 205 32.68" style="enable-background:new 0 0 205 32.68;" xml:space="preserve">
<style type="text/css">
	.st0{fill:#6668AB;}
	.st1{fill:#C6C6C5;}
</style>
<g>
	<g>
		<path class="st0" d="M59.11,8.87c0.04,0.29,0.06,0.59,0.08,0.9c0.02,0.31,0.03,0.73,0.03,1.24v9.86h-2.07V6.25h1.99l7.11,9.51
			l6.62-9.51h2.24v14.62h-2.24v-9.86c0-0.13,0.02-0.45,0.05-0.97c0.03-0.52,0.05-0.91,0.06-1.17c-0.18,0.38-0.35,0.7-0.49,0.95
			c-0.14,0.26-0.27,0.47-0.38,0.62l-5.59,8.13H65.9l-5.81-7.91c-0.01-0.01-0.03-0.04-0.07-0.1C59.6,9.99,59.3,9.42,59.11,8.87z"/>
		<path class="st0" d="M82.53,9.71c0-1.33,0.24-2.24,0.71-2.72c0.47-0.49,1.38-0.73,2.72-0.73h10.11c1.32,0,2.21,0.24,2.69,0.73
			c0.47,0.48,0.71,1.39,0.71,2.73v7.7c0,1.35-0.24,2.26-0.71,2.74c-0.47,0.48-1.37,0.72-2.69,0.72H85.96
			c-1.34,0-2.24-0.24-2.72-0.73c-0.47-0.49-0.71-1.4-0.71-2.72V9.71z M84.96,18.84h12.1V8.24h-12.1V18.84z"/>
		<path class="st0" d="M106.88,20.87V6.25h11.78c1.1,0,1.89,0.22,2.37,0.67c0.48,0.45,0.73,1.17,0.73,2.16v3.26
			c0,0.99-0.24,1.7-0.73,2.15c-0.48,0.45-1.27,0.67-2.37,0.67h-2.14l6.68,5.7h-3.62l-5.95-5.7h-4.3v5.7H106.88z M117.71,8.15h-8.38
			v5.13h8.38c0.61,0,1.02-0.11,1.24-0.33c0.22-0.22,0.33-0.61,0.33-1.16V9.66c0-0.55-0.11-0.94-0.34-1.17
			C118.72,8.26,118.31,8.15,117.71,8.15z"/>
		<path class="st0" d="M128.47,20.87V6.25h2.45v14.62H128.47z"/>
		<path class="st0" d="M138.49,20.87V6.25h1.53l10.94,9.78c0.25,0.22,0.51,0.49,0.8,0.8c0.28,0.31,0.57,0.66,0.86,1.04
			c-0.07-0.47-0.13-0.96-0.17-1.47c-0.04-0.51-0.06-1.22-0.06-2.12V6.25h2.24v14.62h-1.37l-11.23-10.16
			c-0.06-0.05-0.14-0.12-0.25-0.22c-0.55-0.5-0.96-0.97-1.23-1.42c0.06,0.44,0.1,0.92,0.12,1.42c0.03,0.5,0.04,1.09,0.04,1.78v8.62
			H138.49z"/>
		<path class="st0" d="M159.37,20.87l7.98-14.62h2.61l8.12,14.62h-2.68l-1.87-3.6h-9.89l-1.87,3.6H159.37z M164.67,15.41h7.87
			l-3.94-7.48L164.67,15.41z"/>
	</g>
	<g>
		<path class="st1" d="M57.16,26.44l0.57-3.97h0.06l1.61,3.26l1.6-3.26h0.06l0.57,3.97h-0.39l-0.39-2.84l-1.4,2.84h-0.1l-1.42-2.86
			l-0.39,2.86H57.16z"/>
		<path class="st1" d="M70.03,23.5v2.94h-0.37v-0.51c-0.16,0.19-0.34,0.34-0.53,0.43c-0.2,0.1-0.41,0.15-0.65,0.15
			c-0.41,0-0.77-0.15-1.06-0.45c-0.29-0.3-0.44-0.67-0.44-1.1c0-0.42,0.15-0.78,0.44-1.09c0.3-0.3,0.65-0.45,1.07-0.45
			c0.24,0,0.46,0.05,0.65,0.15c0.19,0.1,0.37,0.26,0.51,0.46V23.5H70.03z M68.53,23.79c-0.21,0-0.4,0.05-0.58,0.16
			c-0.18,0.1-0.32,0.25-0.42,0.44c-0.11,0.19-0.16,0.38-0.16,0.59c0,0.21,0.05,0.4,0.16,0.59c0.11,0.19,0.25,0.34,0.43,0.44
			c0.18,0.11,0.37,0.16,0.57,0.16c0.21,0,0.4-0.05,0.59-0.16c0.18-0.1,0.33-0.25,0.43-0.42c0.1-0.18,0.15-0.38,0.15-0.6
			c0-0.34-0.11-0.62-0.34-0.85C69.13,23.9,68.85,23.79,68.53,23.79z"/>
		<path class="st1" d="M75.51,23.5h0.39v0.43c0.11-0.17,0.24-0.3,0.36-0.38c0.13-0.08,0.26-0.13,0.4-0.13c0.1,0,0.22,0.03,0.33,0.1
			l-0.2,0.32c-0.08-0.03-0.15-0.05-0.2-0.05c-0.13,0-0.25,0.05-0.36,0.16s-0.21,0.26-0.27,0.48c-0.05,0.17-0.07,0.51-0.07,1.02v0.99
			h-0.39V23.5z"/>
		<path class="st1" d="M82.08,22.36h0.38v2.32l1.36-1.19h0.55l-1.61,1.4l1.71,1.54h-0.53l-1.48-1.32v1.32h-0.38V22.36z"/>
		<path class="st1" d="M92.09,25.46l0.32,0.17c-0.1,0.21-0.22,0.37-0.36,0.5c-0.14,0.13-0.29,0.22-0.46,0.29
			c-0.17,0.07-0.36,0.1-0.58,0.1c-0.48,0-0.85-0.16-1.12-0.47c-0.27-0.31-0.4-0.67-0.4-1.07c0-0.37,0.11-0.7,0.34-1
			c0.29-0.37,0.68-0.56,1.16-0.56c0.5,0,0.9,0.19,1.2,0.57c0.21,0.27,0.32,0.6,0.32,1h-2.64c0.01,0.34,0.12,0.62,0.33,0.84
			c0.21,0.22,0.47,0.33,0.78,0.33c0.15,0,0.29-0.03,0.44-0.08s0.26-0.12,0.36-0.21C91.86,25.79,91.97,25.65,92.09,25.46z
			 M92.09,24.67c-0.05-0.2-0.12-0.36-0.22-0.48c-0.1-0.12-0.22-0.22-0.38-0.29c-0.16-0.07-0.32-0.11-0.5-0.11
			c-0.29,0-0.54,0.09-0.74,0.28c-0.15,0.14-0.27,0.34-0.34,0.61H92.09z"/>
		<path class="st1" d="M98.3,22.41h0.38v1.09h0.6v0.33h-0.6v2.61H98.3v-2.61h-0.51V23.5h0.51V22.41z"/>
		<path class="st1" d="M104.74,22.29c0.09,0,0.16,0.03,0.22,0.09c0.06,0.06,0.09,0.14,0.09,0.22c0,0.08-0.03,0.16-0.09,0.22
			c-0.06,0.06-0.13,0.09-0.22,0.09c-0.08,0-0.16-0.03-0.22-0.09c-0.06-0.06-0.09-0.13-0.09-0.22c0-0.09,0.03-0.16,0.09-0.22
			C104.58,22.32,104.66,22.29,104.74,22.29z M104.55,23.5h0.38v2.94h-0.38V23.5z"/>
		<path class="st1" d="M110.48,23.5h0.38v0.53c0.15-0.2,0.32-0.35,0.5-0.45s0.38-0.15,0.6-0.15c0.22,0,0.41,0.06,0.58,0.17
			c0.17,0.11,0.29,0.26,0.38,0.45c0.08,0.19,0.12,0.48,0.12,0.88v1.51h-0.38v-1.4c0-0.34-0.01-0.56-0.04-0.68
			c-0.04-0.19-0.13-0.34-0.25-0.44c-0.12-0.1-0.29-0.15-0.49-0.15c-0.23,0-0.43,0.08-0.61,0.23c-0.18,0.15-0.3,0.34-0.36,0.56
			c-0.04,0.15-0.05,0.41-0.05,0.8v1.08h-0.38V23.5z"/>
		<path class="st1" d="M121.14,23.5h0.38v2.34c0,0.41-0.04,0.71-0.11,0.9c-0.1,0.27-0.27,0.48-0.51,0.62
			c-0.24,0.15-0.54,0.22-0.88,0.22c-0.25,0-0.48-0.04-0.68-0.11c-0.2-0.07-0.36-0.17-0.49-0.29s-0.24-0.3-0.35-0.53h0.41
			c0.11,0.19,0.26,0.34,0.43,0.43c0.18,0.09,0.39,0.14,0.66,0.14c0.26,0,0.47-0.05,0.65-0.14c0.18-0.1,0.3-0.22,0.38-0.36
			c0.08-0.15,0.11-0.38,0.11-0.7v-0.15c-0.14,0.18-0.32,0.32-0.52,0.41c-0.21,0.1-0.42,0.14-0.65,0.14c-0.27,0-0.52-0.07-0.76-0.2
			c-0.24-0.13-0.42-0.31-0.55-0.54c-0.13-0.23-0.19-0.48-0.19-0.75s0.07-0.53,0.2-0.76c0.13-0.23,0.32-0.42,0.56-0.56
			c0.24-0.14,0.49-0.21,0.75-0.21c0.22,0,0.42,0.05,0.61,0.14s0.37,0.24,0.55,0.45V23.5z M120.03,23.79c-0.21,0-0.41,0.05-0.6,0.16
			c-0.18,0.1-0.33,0.25-0.43,0.43c-0.1,0.18-0.16,0.38-0.16,0.59c0,0.32,0.11,0.59,0.32,0.8c0.22,0.21,0.49,0.32,0.84,0.32
			c0.35,0,0.63-0.1,0.84-0.31c0.21-0.21,0.32-0.48,0.32-0.82c0-0.22-0.05-0.42-0.15-0.59c-0.1-0.17-0.23-0.31-0.41-0.41
			C120.43,23.84,120.24,23.79,120.03,23.79z"/>
		<path class="st1" d="M135.07,22.46l1.85,3.97h-0.43l-0.62-1.31h-1.71l-0.62,1.31h-0.44l1.87-3.97H135.07z M135.02,23.31
			l-0.68,1.44h1.36L135.02,23.31z"/>
		<path class="st1" d="M144.77,23.5h0.38v2.34c0,0.41-0.04,0.71-0.11,0.9c-0.1,0.27-0.27,0.48-0.51,0.62
			c-0.24,0.15-0.54,0.22-0.88,0.22c-0.25,0-0.48-0.04-0.68-0.11c-0.2-0.07-0.36-0.17-0.49-0.29c-0.13-0.12-0.24-0.3-0.35-0.53h0.41
			c0.11,0.19,0.26,0.34,0.43,0.43c0.18,0.09,0.39,0.14,0.66,0.14c0.26,0,0.47-0.05,0.65-0.14c0.18-0.1,0.3-0.22,0.38-0.36
			c0.08-0.15,0.11-0.38,0.11-0.7v-0.15c-0.14,0.18-0.32,0.32-0.52,0.41c-0.21,0.1-0.42,0.14-0.65,0.14c-0.27,0-0.52-0.07-0.76-0.2
			c-0.24-0.13-0.42-0.31-0.55-0.54c-0.13-0.23-0.19-0.48-0.19-0.75s0.07-0.53,0.2-0.76c0.13-0.23,0.32-0.42,0.56-0.56
			c0.24-0.14,0.49-0.21,0.75-0.21c0.22,0,0.42,0.05,0.61,0.14c0.19,0.09,0.37,0.24,0.55,0.45V23.5z M143.66,23.79
			c-0.21,0-0.41,0.05-0.6,0.16c-0.18,0.1-0.33,0.25-0.43,0.43c-0.1,0.18-0.16,0.38-0.16,0.59c0,0.32,0.11,0.59,0.32,0.8
			c0.22,0.21,0.49,0.32,0.84,0.32c0.35,0,0.63-0.1,0.84-0.31c0.21-0.21,0.32-0.48,0.32-0.82c0-0.22-0.05-0.42-0.15-0.59
			c-0.1-0.17-0.23-0.31-0.41-0.41C144.05,23.84,143.86,23.79,143.66,23.79z"/>
		<path class="st1" d="M153.19,25.46l0.32,0.17c-0.1,0.21-0.22,0.37-0.36,0.5c-0.14,0.13-0.29,0.22-0.46,0.29s-0.36,0.1-0.58,0.1
			c-0.48,0-0.85-0.16-1.12-0.47c-0.27-0.31-0.4-0.67-0.4-1.07c0-0.37,0.11-0.7,0.34-1c0.29-0.37,0.68-0.56,1.16-0.56
			c0.5,0,0.9,0.19,1.2,0.57c0.21,0.27,0.32,0.6,0.32,1h-2.64c0.01,0.34,0.12,0.62,0.33,0.84c0.21,0.22,0.47,0.33,0.78,0.33
			c0.15,0,0.29-0.03,0.44-0.08c0.14-0.05,0.26-0.12,0.36-0.21C152.97,25.79,153.08,25.65,153.19,25.46z M153.19,24.67
			c-0.05-0.2-0.12-0.36-0.22-0.48c-0.1-0.12-0.22-0.22-0.38-0.29c-0.16-0.07-0.32-0.11-0.5-0.11c-0.29,0-0.54,0.09-0.74,0.28
			c-0.15,0.14-0.27,0.34-0.34,0.61H153.19z"/>
		<path class="st1" d="M159.08,23.5h0.38v0.53c0.15-0.2,0.32-0.35,0.5-0.45c0.18-0.1,0.38-0.15,0.6-0.15c0.22,0,0.41,0.06,0.58,0.17
			c0.17,0.11,0.29,0.26,0.38,0.45c0.08,0.19,0.12,0.48,0.12,0.88v1.51h-0.38v-1.4c0-0.34-0.01-0.56-0.04-0.68
			c-0.04-0.19-0.13-0.34-0.25-0.44c-0.12-0.1-0.29-0.15-0.48-0.15c-0.23,0-0.43,0.08-0.61,0.23c-0.18,0.15-0.3,0.34-0.36,0.56
			c-0.04,0.15-0.05,0.41-0.05,0.8v1.08h-0.38V23.5z"/>
		<path class="st1" d="M170.06,24.11l-0.3,0.19c-0.26-0.34-0.61-0.52-1.06-0.52c-0.36,0-0.65,0.12-0.89,0.35
			c-0.24,0.23-0.35,0.51-0.35,0.84c0,0.21,0.05,0.42,0.16,0.6c0.11,0.19,0.26,0.34,0.45,0.44c0.19,0.1,0.4,0.16,0.64,0.16
			c0.43,0,0.78-0.17,1.05-0.52l0.3,0.2c-0.14,0.21-0.33,0.38-0.56,0.49c-0.24,0.12-0.51,0.17-0.81,0.17c-0.46,0-0.85-0.15-1.15-0.44
			c-0.31-0.3-0.46-0.65-0.46-1.08c0-0.28,0.07-0.55,0.21-0.79c0.14-0.24,0.34-0.43,0.59-0.57c0.25-0.14,0.53-0.21,0.84-0.21
			c0.19,0,0.38,0.03,0.56,0.09c0.18,0.06,0.33,0.14,0.46,0.23S169.97,23.96,170.06,24.11z"/>
		<path class="st1" d="M175.24,23.5h0.4l1.01,2.26l0.98-2.26h0.4l-1.75,4.01h-0.4l0.56-1.3L175.24,23.5z"/>
	</g>
	<path class="st0" d="M46.68,20.48L46.68,20.48c0,0.68-0.29,1.33-0.79,1.78c-0.63,0.58-1.2,1.07-1.68,1.47
		c-0.68,0.56-1.35,1.06-2.03,1.5c-0.67,0.44-1.23,0.76-1.67,0.95c-0.44,0.19-0.82,0.28-1.14,0.28c-0.75,0-1.37-0.28-1.85-0.84
		c-0.48-0.56-0.72-1.28-0.72-2.17c0-1.02,0.21-2.03,0.62-3.03c0.41-1,1-2.03,1.77-3.1c0.76-1.07,1.72-2.26,2.88-3.59
		c0.86-0.98,1.28-1.53,1.28-1.65c0-0.07-0.03-0.13-0.08-0.18c-0.05-0.05-0.11-0.08-0.17-0.08c-0.19,0-0.79,0.43-1.79,1.28
		c-1,0.86-2.28,2.12-3.85,3.78c-1.57,1.66-3.25,3.64-5.07,5.93c-0.1,0.12-0.43,0.54-0.97,1.25c-0.55,0.71-0.93,1.17-1.15,1.38
		c-0.22,0.21-0.42,0.32-0.58,0.32c-0.29,0-0.53-0.29-0.74-0.86c-0.21-0.58-0.31-1.19-0.31-1.84c0-0.4,0.13-0.83,0.39-1.28
		c0.26-0.46,0.83-1.28,1.7-2.47c0.87-1.19,1.59-2.19,2.16-3.01c0.57-0.82,1.2-1.8,1.88-2.97c0.48-0.81,0.83-1.45,1.06-1.93
		c0.23-0.48,0.34-0.9,0.34-1.27c0-0.32-0.09-0.47-0.28-0.47c-0.39,0-1.12,0.52-2.19,1.55c-1.07,1.03-2.39,2.57-3.97,4.61
		c-1.58,2.04-3.22,4.4-4.93,7.08c-0.56,0.92-0.96,1.53-1.19,1.85c-0.23,0.32-0.49,0.47-0.78,0.47c-0.36,0-0.69-0.38-1-1.14
		c-0.31-0.76-0.47-1.37-0.47-1.84c0-0.15,0.06-0.32,0.18-0.5c1.35-1.79,2.45-3.32,3.32-4.57c0.87-1.25,1.64-2.44,2.31-3.57
		c0.67-1.13,1.16-2.05,1.47-2.78c0.31-0.73,0.46-1.3,0.46-1.72c0-0.44-0.2-0.66-0.6-0.66c-0.33,0-0.88,0.21-1.67,0.63
		c-0.79,0.42-1.78,0.99-2.97,1.71c-1.2,0.72-2.16,1.28-2.88,1.66c-0.72,0.38-1.26,0.57-1.62,0.57c-0.34,0-0.5-0.19-0.5-0.57
		c0-0.21,0.07-0.71,0.21-1.48c0.14-0.77,0.29-1.31,0.44-1.63c0.21-0.41,0.76-0.95,1.64-1.62c0.88-0.67,1.37-1.01,1.46-1.01
		c0.08,0,0.12,0.04,0.12,0.11c0,0.04-0.04,0.1-0.12,0.18c-0.42,0.34-0.73,0.61-0.93,0.83c-0.2,0.21-0.33,0.45-0.38,0.7
		c1.87-1.12,3.54-1.98,5.01-2.56c1.47-0.59,2.5-0.88,3.07-0.88c0.29,0,0.56,0.19,0.81,0.57c0.25,0.38,0.47,0.83,0.65,1.33
		c0.18,0.5,0.27,0.83,0.27,0.97c0,0.52-0.13,1.13-0.4,1.84c-0.27,0.71-0.62,1.53-1.08,2.47c-0.45,0.94-1.02,2.11-1.69,3.52
		c0.53-0.68,1.03-1.32,1.51-1.9c0.48-0.58,0.96-1.15,1.43-1.7c0.47-0.55,0.96-1.11,1.45-1.67c0.66-0.76,1.41-1.5,2.23-2.19
		c0.83-0.7,1.6-1.27,2.32-1.71c0.72-0.44,1.21-0.67,1.46-0.67c0.36,0,0.68,0.2,0.96,0.59c0.28,0.39,0.42,0.81,0.42,1.26
		c0,0.3-0.19,0.86-0.58,1.7c-0.39,0.84-0.95,1.91-1.7,3.21c-0.74,1.31-1.73,2.99-2.95,5.05c1.16-1.23,2.37-2.5,3.62-3.81
		c1.25-1.3,2.19-2.26,2.8-2.86c0.61-0.6,1.12-1.06,1.53-1.38c0.56-0.43,1.12-0.89,1.69-1.38c0.57-0.49,1.01-0.88,1.34-1.17
		c0.33-0.29,0.62-0.5,0.87-0.66c0.25-0.15,0.49-0.23,0.7-0.23c0.26,0,0.6,0.31,1,0.92c0.4,0.61,0.6,1,0.6,1.18
		c0,0.21-0.12,0.47-0.36,0.76c-0.24,0.3-0.74,0.85-1.49,1.65c-1.39,1.49-2.59,2.99-3.61,4.5c-1.02,1.51-1.79,2.9-2.32,4.14
		c-0.53,1.25-0.79,2.24-0.79,2.96c0,0.45,0.08,0.77,0.25,0.98c0.17,0.2,0.43,0.31,0.79,0.31c0.33,0,0.63-0.06,0.91-0.18
		c0.28-0.12,0.59-0.3,0.93-0.52c0.34-0.22,0.67-0.44,0.97-0.64c0.43-0.25,0.85-0.53,1.26-0.82c0.41-0.29,0.73-0.52,0.96-0.69
		C46.4,20.67,46.57,20.55,46.68,20.48z"/>
</g>
</svg>
